<?xml version="1.0" encoding="utf-8"?>
 <!DOCTYPE svg PUBLIC "-//W3C//DTD SVG 20010904//EN" "http://www.w3.org/TR/2001/REC-SVG-20010904/DTD/svg10.dtd">
<svg class="Qr-item-svg" width="100%" height="100%" viewBox="-6.6 -6.6 46.2 46.2" fill="white" xmlns="http://www.w3.org/2000/svg" xmlns:xlink="http://www.w3.org/1999/xlink"><rect width="0.7" height="0.7" fill="#F6B506" x="15.15" y="0.15000000000000002"></rect><rect width="0.7" height="0.7" fill="#F6B506" x="19.15" y="0.15000000000000002"></rect><rect width="0.7" height="0.7" fill="#F6B506" x="21.15" y="0.15000000000000002"></rect><rect width="0.7" height="0.7" fill="#F6B506" x="24.15" y="0.15000000000000002"></rect><rect width="0.7" height="0.7" fill="#F6B506" x="11.15" y="1.15"></rect><rect width="0.7" height="0.7" fill="#F6B506" x="15.15" y="1.15"></rect><rect width="0.7" height="0.7" fill="#F6B506" x="19.15" y="1.15"></rect><rect width="0.7" height="0.7" fill="#F6B506" x="24.15" y="1.15"></rect><rect width="0.7" height="0.7" fill="#F6B506" x="9.15" y="2.15"></rect><rect width="0.7" height="0.7" fill="#F6B506" x="16.15" y="2.15"></rect><rect width="0.7" height="0.7" fill="#F6B506" x="22.15" y="2.15"></rect><rect width="2.9" height="2.9" fill="#0B2D97" x="2.05" y="2.05"></rect><rect width="0.9" height="2.9" fill="#0B2D97" x="0.04999999999999999" y="2.05"></rect><rect width="0.9" height="2.9" fill="#0B2D97" x="6.05" y="2.05"></rect><rect width="2.9" height="0.9" fill="#0B2D97" x="2.05" y="0.04999999999999999"></rect><rect width="2.9" height="0.9" fill="#0B2D97" x="2.05" y="6.05"></rect><rect width="0.7" height="0.7" fill="#F6B506" x="15.15" y="3.15"></rect><rect width="2.9" height="2.9" fill="#0B2D97" x="28.05" y="2.05"></rect><rect width="0.9" height="2.9" fill="#0B2D97" x="26.05" y="2.05"></rect><rect width="0.9" height="2.9" fill="#0B2D97" x="32.05" y="2.05"></rect><rect width="2.9" height="0.9" fill="#0B2D97" x="28.05" y="0.04999999999999999"></rect><rect width="2.9" height="0.9" fill="#0B2D97" x="28.05" y="6.05"></rect><rect width="0.7" height="0.7" fill="#F6B506" x="11.15" y="4.15"></rect><rect width="0.7" height="0.7" fill="#F6B506" x="24.15" y="4.15"></rect><rect width="0.7" height="0.7" fill="#F6B506" x="14.15" y="5.15"></rect><rect width="0.7" height="0.7" fill="#F6B506" x="18.15" y="5.15"></rect><rect width="0.7" height="0.7" fill="#F6B506" x="21.15" y="5.15"></rect><rect width="0.7" height="0.7" fill="#F6B506" x="23.15" y="5.15"></rect><rect width="0.7" height="0.7" fill="#F6B506" x="10.15" y="6.15"></rect><rect width="0.7" height="0.7" fill="#F6B506" x="16.15" y="6.15"></rect><rect width="0.7" height="0.7" fill="#F6B506" x="24.15" y="6.15"></rect><rect width="0.7" height="0.7" fill="#F6B506" x="10.15" y="7.15"></rect><rect width="0.7" height="0.7" fill="#F6B506" x="12.15" y="7.15"></rect><rect width="0.7" height="0.7" fill="#F6B506" x="15.15" y="7.15"></rect><rect width="0.7" height="0.7" fill="#F6B506" x="18.15" y="7.15"></rect><rect width="0.7" height="0.7" fill="#F6B506" x="20.15" y="7.15"></rect><rect width="0.7" height="0.7" fill="#F6B506" x="22.15" y="7.15"></rect><rect width="0.7" height="0.7" fill="#F6B506" x="24.15" y="7.15"></rect><rect width="0.7" height="0.7" fill="#F6B506" x="6.15" y="8.15"></rect><rect width="0.7" height="0.7" fill="#F6B506" x="9.15" y="8.15"></rect><rect width="0.7" height="0.7" fill="#F6B506" x="11.15" y="8.15"></rect><rect width="0.7" height="0.7" fill="#F6B506" x="15.15" y="8.15"></rect><rect width="0.7" height="0.7" fill="#F6B506" x="25.15" y="8.15"></rect><rect width="0.7" height="0.7" fill="#F6B506" x="11.15" y="9.15"></rect><rect width="0.7" height="0.7" fill="#F6B506" x="13.15" y="9.15"></rect><rect width="0.7" height="0.7" fill="#F6B506" x="17.15" y="9.15"></rect><rect width="0.7" height="0.7" fill="#F6B506" x="23.15" y="9.15"></rect><rect width="0.7" height="0.7" fill="#F6B506" x="32.15" y="9.15"></rect><rect width="0.7" height="0.7" fill="#F6B506" x="19.15" y="10.15"></rect><rect width="0.7" height="0.7" fill="#F6B506" x="21.15" y="10.15"></rect><rect width="0.7" height="0.7" fill="#F6B506" x="29.15" y="10.15"></rect><rect width="0.7" height="0.7" fill="#F6B506" x="31.15" y="10.15"></rect><rect width="0.7" height="0.7" fill="#F6B506" x="24.15" y="11.15"></rect><rect width="0.7" height="0.7" fill="#F6B506" x="2.15" y="12.15"></rect><rect width="0.7" height="0.7" fill="#F6B506" x="4.15" y="12.15"></rect><rect width="0.7" height="0.7" fill="#F6B506" x="11.15" y="12.15"></rect><rect width="0.7" height="0.7" fill="#F6B506" x="16.15" y="12.15"></rect><rect width="0.7" height="0.7" fill="#F6B506" x="0.15000000000000002" y="13.15"></rect><rect width="0.7" height="0.7" fill="#F6B506" x="13.15" y="13.15"></rect><rect width="0.7" height="0.7" fill="#F6B506" x="16.15" y="13.15"></rect><rect width="0.7" height="0.7" fill="#F6B506" x="21.15" y="13.15"></rect><rect width="0.7" height="0.7" fill="#F6B506" x="25.15" y="13.15"></rect><rect width="0.7" height="0.7" fill="#F6B506" x="11.15" y="14.15"></rect><rect width="0.7" height="0.7" fill="#F6B506" x="13.15" y="14.15"></rect><rect width="0.7" height="0.7" fill="#F6B506" x="15.15" y="14.15"></rect><rect width="0.7" height="0.7" fill="#F6B506" x="19.15" y="14.15"></rect><rect width="0.7" height="0.7" fill="#F6B506" x="29.15" y="14.15"></rect><rect width="0.7" height="0.7" fill="#F6B506" x="31.15" y="14.15"></rect><rect width="0.7" height="0.7" fill="#F6B506" x="0.15000000000000002" y="15.15"></rect><rect width="0.7" height="0.7" fill="#F6B506" x="2.15" y="15.15"></rect><rect width="0.7" height="0.7" fill="#F6B506" x="8.15" y="15.15"></rect><rect width="0.7" height="0.7" fill="#F6B506" x="10.15" y="15.15"></rect><rect width="0.7" height="0.7" fill="#F6B506" x="15.15" y="15.15"></rect><rect width="0.7" height="0.7" fill="#F6B506" x="28.15" y="15.15"></rect><rect width="0.7" height="0.7" fill="#F6B506" x="16.15" y="16.15"></rect><rect width="0.7" height="0.7" fill="#F6B506" x="31.15" y="16.15"></rect><rect width="0.7" height="0.7" fill="#F6B506" x="10.15" y="17.15"></rect><rect width="0.7" height="0.7" fill="#F6B506" x="11.15" y="17.15"></rect><rect width="0.7" height="0.7" fill="#F6B506" x="13.15" y="17.15"></rect><rect width="0.7" height="0.7" fill="#F6B506" x="22.15" y="17.15"></rect><rect width="0.7" height="0.7" fill="#F6B506" x="31.15" y="17.15"></rect><rect width="0.7" height="0.7" fill="#F6B506" x="9.15" y="18.15"></rect><rect width="0.7" height="0.7" fill="#F6B506" x="22.15" y="18.15"></rect><rect width="0.7" height="0.7" fill="#F6B506" x="0.15000000000000002" y="19.15"></rect><rect width="0.7" height="0.7" fill="#F6B506" x="12.15" y="19.15"></rect><rect width="0.7" height="0.7" fill="#F6B506" x="17.15" y="19.15"></rect><rect width="0.7" height="0.7" fill="#F6B506" x="23.15" y="19.15"></rect><rect width="0.7" height="0.7" fill="#F6B506" x="28.15" y="19.15"></rect><rect width="0.7" height="0.7" fill="#F6B506" x="32.15" y="19.15"></rect><rect width="0.7" height="0.7" fill="#F6B506" x="3.15" y="20.15"></rect><rect width="0.7" height="0.7" fill="#F6B506" x="7.15" y="20.15"></rect><rect width="0.7" height="0.7" fill="#F6B506" x="10.15" y="20.15"></rect><rect width="0.7" height="0.7" fill="#F6B506" x="14.15" y="20.15"></rect><rect width="0.7" height="0.7" fill="#F6B506" x="18.15" y="20.15"></rect><rect width="0.7" height="0.7" fill="#F6B506" x="4.15" y="21.15"></rect><rect width="0.7" height="0.7" fill="#F6B506" x="20.15" y="21.15"></rect><rect width="0.7" height="0.7" fill="#F6B506" x="26.15" y="21.15"></rect><rect width="0.7" height="0.7" fill="#F6B506" x="32.15" y="21.15"></rect><rect width="0.7" height="0.7" fill="#F6B506" x="1.15" y="22.15"></rect><rect width="0.7" height="0.7" fill="#F6B506" x="3.15" y="22.15"></rect><rect width="0.7" height="0.7" fill="#F6B506" x="5.15" y="22.15"></rect><rect width="0.7" height="0.7" fill="#F6B506" x="17.15" y="22.15"></rect><rect width="0.7" height="0.7" fill="#F6B506" x="19.15" y="22.15"></rect><rect width="0.7" height="0.7" fill="#F6B506" x="25.15" y="22.15"></rect><rect width="0.7" height="0.7" fill="#F6B506" x="28.15" y="22.15"></rect><rect width="0.7" height="0.7" fill="#F6B506" x="2.15" y="23.15"></rect><rect width="0.7" height="0.7" fill="#F6B506" x="4.15" y="23.15"></rect><rect width="0.7" height="0.7" fill="#F6B506" x="12.15" y="23.15"></rect><rect width="0.7" height="0.7" fill="#F6B506" x="14.15" y="23.15"></rect><rect width="0.7" height="0.7" fill="#F6B506" x="18.15" y="23.15"></rect><rect width="0.7" height="0.7" fill="#F6B506" x="29.15" y="23.15"></rect><rect width="0.7" height="0.7" fill="#F6B506" x="2.15" y="24.15"></rect><rect width="0.7" height="0.7" fill="#F6B506" x="6.15" y="24.15"></rect><rect width="0.7" height="0.7" fill="#F6B506" x="11.15" y="24.15"></rect><rect width="0.7" height="0.7" fill="#F6B506" x="14.15" y="24.15"></rect><rect width="0.7" height="0.7" fill="#F6B506" x="19.15" y="24.15"></rect><rect width="0.7" height="0.7" fill="#F6B506" x="13.15" y="25.15"></rect><rect width="0.7" height="0.7" fill="#F6B506" x="15.15" y="25.15"></rect><rect width="0.7" height="0.7" fill="#F6B506" x="30.15" y="25.15"></rect><rect width="0.7" height="0.7" fill="#F6B506" x="10.15" y="26.15"></rect><rect width="0.7" height="0.7" fill="#F6B506" x="26.15" y="26.15"></rect><rect width="0.7" height="0.7" fill="#F6B506" x="13.15" y="27.15"></rect><rect width="0.7" height="0.7" fill="#F6B506" x="16.15" y="27.15"></rect><rect width="0.7" height="0.7" fill="#F6B506" x="23.15" y="27.15"></rect><rect width="0.7" height="0.7" fill="#F6B506" x="29.15" y="27.15"></rect><rect width="0.7" height="0.7" fill="#F6B506" x="23.15" y="28.15"></rect><rect width="0.7" height="0.7" fill="#F6B506" x="27.15" y="28.15"></rect><rect width="0.7" height="0.7" fill="#F6B506" x="30.15" y="28.15"></rect><rect width="0.7" height="0.7" fill="#F6B506" x="32.15" y="28.15"></rect><rect width="2.9" height="2.9" fill="#0B2D97" x="2.05" y="28.05"></rect><rect width="0.9" height="2.9" fill="#0B2D97" x="0.04999999999999999" y="28.05"></rect><rect width="0.9" height="2.9" fill="#0B2D97" x="6.05" y="28.05"></rect><rect width="2.9" height="0.9" fill="#0B2D97" x="2.05" y="26.05"></rect><rect width="2.9" height="0.9" fill="#0B2D97" x="2.05" y="32.05"></rect><rect width="0.7" height="0.7" fill="#F6B506" x="9.15" y="29.15"></rect><rect width="0.7" height="0.7" fill="#F6B506" x="11.15" y="29.15"></rect><rect width="0.7" height="0.7" fill="#F6B506" x="13.15" y="29.15"></rect><rect width="0.7" height="0.7" fill="#F6B506" x="17.15" y="29.15"></rect><rect width="0.7" height="0.7" fill="#F6B506" x="27.15" y="29.15"></rect><rect width="0.7" height="0.7" fill="#F6B506" x="30.15" y="29.15"></rect><rect width="0.7" height="0.7" fill="#F6B506" x="10.15" y="30.15"></rect><rect width="0.7" height="0.7" fill="#F6B506" x="14.15" y="30.15"></rect><rect width="0.7" height="0.7" fill="#F6B506" x="21.15" y="30.15"></rect><rect width="0.7" height="0.7" fill="#F6B506" x="32.15" y="30.15"></rect><rect width="0.7" height="0.7" fill="#F6B506" x="9.15" y="31.15"></rect><rect width="0.7" height="0.7" fill="#F6B506" x="12.15" y="31.15"></rect><rect width="0.7" height="0.7" fill="#F6B506" x="16.15" y="31.15"></rect><rect width="0.7" height="0.7" fill="#F6B506" x="18.15" y="31.15"></rect><rect width="0.7" height="0.7" fill="#F6B506" x="20.15" y="31.15"></rect><rect width="0.7" height="0.7" fill="#F6B506" x="23.15" y="31.15"></rect><rect width="0.7" height="0.7" fill="#F6B506" x="26.15" y="31.15"></rect><rect width="0.7" height="0.7" fill="#F6B506" x="28.15" y="31.15"></rect><rect width="0.7" height="0.7" fill="#F6B506" x="30.15" y="31.15"></rect><rect width="0.7" height="0.7" fill="#F6B506" x="11.15" y="32.15"></rect><rect width="0.7" height="0.7" fill="#F6B506" x="16.15" y="32.15"></rect><rect width="0.7" height="0.7" fill="#F6B506" x="27.15" y="32.15"></rect><rect width="0.7" height="0.7" fill="#F6B506" x="32.15" y="32.15"></rect><line x1="8.247487373415291" y1="0.2474873734152916" x2="9.752512626584709" y2="1.7525126265847084" fill="none" stroke="#0B2D97" stroke-width="0.7"></line><line x1="9.752512626584709" y1="0.2474873734152916" x2="8.247487373415291" y2="1.7525126265847084" fill="none" stroke="#0B2D97" stroke-width="0.7"></line><line x1="20.247487373415293" y1="3.2474873734152916" x2="21.752512626584707" y2="4.752512626584709" fill="none" stroke="#0B2D97" stroke-width="0.7"></line><line x1="21.752512626584707" y1="3.2474873734152916" x2="20.247487373415293" y2="4.752512626584709" fill="none" stroke="#0B2D97" stroke-width="0.7"></line><line x1="17.247487373415293" y1="5.247487373415291" x2="19.752512626584707" y2="7.752512626584709" fill="none" stroke="#0B2D97" stroke-width="0.7"></line><line x1="19.752512626584707" y1="5.247487373415291" x2="17.247487373415293" y2="7.752512626584709" fill="none" stroke="#0B2D97" stroke-width="0.7"></line><line x1="12.247487373415291" y1="6.247487373415291" x2="14.752512626584709" y2="8.752512626584709" fill="none" stroke="#0B2D97" stroke-width="0.7"></line><line x1="14.752512626584709" y1="6.247487373415291" x2="12.247487373415291" y2="8.752512626584709" fill="none" stroke="#0B2D97" stroke-width="0.7"></line><line x1="20.247487373415293" y1="6.247487373415291" x2="22.752512626584707" y2="8.752512626584709" fill="none" stroke="#0B2D97" stroke-width="0.7"></line><line x1="22.752512626584707" y1="6.247487373415291" x2="20.247487373415293" y2="8.752512626584709" fill="none" stroke="#0B2D97" stroke-width="0.7"></line><line x1="21.247487373415293" y1="15.247487373415291" x2="22.752512626584707" y2="16.752512626584707" fill="none" stroke="#0B2D97" stroke-width="0.7"></line><line x1="22.752512626584707" y1="15.247487373415291" x2="21.247487373415293" y2="16.752512626584707" fill="none" stroke="#0B2D97" stroke-width="0.7"></line><line x1="11.247487373415291" y1="16.247487373415293" x2="13.752512626584709" y2="18.752512626584707" fill="none" stroke="#0B2D97" stroke-width="0.7"></line><line x1="13.752512626584709" y1="16.247487373415293" x2="11.247487373415291" y2="18.752512626584707" fill="none" stroke="#0B2D97" stroke-width="0.7"></line><line x1="5.247487373415291" y1="17.247487373415293" x2="7.752512626584709" y2="19.752512626584707" fill="none" stroke="#0B2D97" stroke-width="0.7"></line><line x1="7.752512626584709" y1="17.247487373415293" x2="5.247487373415291" y2="19.752512626584707" fill="none" stroke="#0B2D97" stroke-width="0.7"></line><line x1="6.247487373415291" y1="20.247487373415293" x2="8.752512626584709" y2="22.752512626584707" fill="none" stroke="#0B2D97" stroke-width="0.7"></line><line x1="8.752512626584709" y1="20.247487373415293" x2="6.247487373415291" y2="22.752512626584707" fill="none" stroke="#0B2D97" stroke-width="0.7"></line><line x1="19.247487373415293" y1="21.247487373415293" x2="21.752512626584707" y2="23.752512626584707" fill="none" stroke="#0B2D97" stroke-width="0.7"></line><line x1="21.752512626584707" y1="21.247487373415293" x2="19.247487373415293" y2="23.752512626584707" fill="none" stroke="#0B2D97" stroke-width="0.7"></line><line x1="7.247487373415291" y1="23.247487373415293" x2="8.752512626584709" y2="24.752512626584707" fill="none" stroke="#0B2D97" stroke-width="0.7"></line><line x1="8.752512626584709" y1="23.247487373415293" x2="7.247487373415291" y2="24.752512626584707" fill="none" stroke="#0B2D97" stroke-width="0.7"></line><line x1="9.247487373415291" y1="23.247487373415293" x2="10.752512626584709" y2="24.752512626584707" fill="none" stroke="#0B2D97" stroke-width="0.7"></line><line x1="10.752512626584709" y1="23.247487373415293" x2="9.247487373415291" y2="24.752512626584707" fill="none" stroke="#0B2D97" stroke-width="0.7"></line><line x1="18.247487373415293" y1="28.247487373415293" x2="19.752512626584707" y2="29.752512626584707" fill="none" stroke="#0B2D97" stroke-width="0.7"></line><line x1="19.752512626584707" y1="28.247487373415293" x2="18.247487373415293" y2="29.752512626584707" fill="none" stroke="#0B2D97" stroke-width="0.7"></line><line x1="25.247487373415293" y1="28.247487373415293" x2="26.752512626584707" y2="29.752512626584707" fill="none" stroke="#0B2D97" stroke-width="0.7"></line><line x1="26.752512626584707" y1="28.247487373415293" x2="25.247487373415293" y2="29.752512626584707" fill="none" stroke="#0B2D97" stroke-width="0.7"></line><rect width="0.7" height="1.7" fill="#E02020" x="10.15" y="0.15000000000000002"></rect><rect width="0.7" height="0.7" fill="#E02020" x="10.15" y="2.15"></rect><rect width="0.7" height="3.7" fill="#E02020" x="13.15" y="0.15000000000000002"></rect><rect width="0.7" height="0.7" fill="#E02020" x="13.15" y="4.15"></rect><rect width="0.7" height="2.7" fill="#E02020" x="17.15" y="0.15000000000000002"></rect><rect width="0.7" height="0.7" fill="#E02020" x="17.15" y="3.15"></rect><rect width="1.7" height="0.7" fill="#F6B506" x="11.15" y="2.15"></rect><rect width="0.7" height="1.7" fill="#E02020" x="8.15" y="4.15"></rect><rect width="0.7" height="0.7" fill="#E02020" x="8.15" y="6.15"></rect><rect width="2.7" height="0.7" fill="#F6B506" x="9.15" y="5.15"></rect><rect width="3.7" height="0.7" fill="#F6B506" x="0.15000000000000002" y="8.15"></rect><rect width="0.7" height="1.7" fill="#E02020" x="5.15" y="8.15"></rect><rect width="0.7" height="0.7" fill="#E02020" x="5.15" y="10.15"></rect><rect width="2.7" height="0.7" fill="#F6B506" x="17.15" y="8.15"></rect><rect width="1.7" height="0.7" fill="#F6B506" x="27.15" y="8.15"></rect><rect width="1.7" height="0.7" fill="#F6B506" x="31.15" y="8.15"></rect><rect width="2.7" height="0.7" fill="#F6B506" x="2.15" y="9.15"></rect><rect width="0.7" height="3.7" fill="#E02020" x="10.15" y="9.15"></rect><rect width="0.7" height="0.7" fill="#E02020" x="10.15" y="13.15"></rect><rect width="1.7" height="0.7" fill="#F6B506" x="20.15" y="9.15"></rect><rect width="0.7" height="5.7" fill="#E02020" x="30.15" y="9.15"></rect><rect width="0.7" height="0.7" fill="#E02020" x="30.15" y="15.15"></rect><rect width="1.7" height="0.7" fill="#F6B506" x="3.15" y="10.15"></rect><rect width="2.7" height="0.7" fill="#F6B506" x="6.15" y="10.15"></rect><rect width="1.7" height="0.7" fill="#F6B506" x="13.15" y="10.15"></rect><rect width="0.7" height="5.7" fill="#E02020" x="18.15" y="10.15"></rect><rect width="0.7" height="0.7" fill="#E02020" x="18.15" y="16.15"></rect><rect width="2.7" height="0.7" fill="#F6B506" x="23.15" y="10.15"></rect><rect width="0.7" height="2.7" fill="#E02020" x="1.15" y="11.15"></rect><rect width="0.7" height="0.7" fill="#E02020" x="1.15" y="14.15"></rect><rect width="0.7" height="1.7" fill="#E02020" x="9.15" y="11.15"></rect><rect width="0.7" height="0.7" fill="#E02020" x="9.15" y="13.15"></rect><rect width="2.7" height="0.7" fill="#F6B506" x="14.15" y="11.15"></rect><rect width="0.7" height="1.7" fill="#E02020" x="20.15" y="11.15"></rect><rect width="0.7" height="0.7" fill="#E02020" x="20.15" y="13.15"></rect><rect width="1.7" height="0.7" fill="#F6B506" x="21.15" y="11.15"></rect><rect width="1.7" height="0.7" fill="#F6B506" x="26.15" y="11.15"></rect><rect width="1.7" height="0.7" fill="#F6B506" x="6.15" y="12.15"></rect><rect width="2.7" height="0.7" fill="#F6B506" x="22.15" y="12.15"></rect><rect width="1.7" height="0.7" fill="#F6B506" x="31.15" y="12.15"></rect><rect width="1.7" height="0.7" fill="#F6B506" x="3.15" y="13.15"></rect><rect width="1.7" height="0.7" fill="#F6B506" x="28.15" y="13.15"></rect><rect width="3.7" height="0.7" fill="#F6B506" x="5.15" y="14.15"></rect><rect width="0.7" height="1.7" fill="#E02020" x="17.15" y="14.15"></rect><rect width="0.7" height="0.7" fill="#E02020" x="17.15" y="16.15"></rect><rect width="0.7" height="2.7" fill="#E02020" x="23.15" y="14.15"></rect><rect width="0.7" height="0.7" fill="#E02020" x="23.15" y="17.15"></rect><rect width="1.7" height="0.7" fill="#F6B506" x="26.15" y="14.15"></rect><rect width="0.7" height="2.7" fill="#E02020" x="14.15" y="15.15"></rect><rect width="0.7" height="0.7" fill="#E02020" x="14.15" y="18.15"></rect><rect width="0.7" height="3.7" fill="#E02020" x="24.15" y="15.15"></rect><rect width="0.7" height="0.7" fill="#E02020" x="24.15" y="19.15"></rect><rect width="1.7" height="0.7" fill="#F6B506" x="25.15" y="15.15"></rect><rect width="0.7" height="2.7" fill="#E02020" x="1.15" y="16.15"></rect><rect width="0.7" height="0.7" fill="#E02020" x="1.15" y="19.15"></rect><rect width="3.7" height="0.7" fill="#F6B506" x="3.15" y="16.15"></rect><rect width="1.7" height="0.7" fill="#F6B506" x="8.15" y="16.15"></rect><rect width="0.7" height="2.7" fill="#E02020" x="20.15" y="16.15"></rect><rect width="0.7" height="0.7" fill="#E02020" x="20.15" y="19.15"></rect><rect width="1.7" height="0.7" fill="#F6B506" x="28.15" y="16.15"></rect><rect width="0.7" height="3.7" fill="#E02020" x="2.15" y="17.15"></rect><rect width="0.7" height="0.7" fill="#E02020" x="2.15" y="21.15"></rect><rect width="1.7" height="0.7" fill="#F6B506" x="15.15" y="17.15"></rect><rect width="0.7" height="1.7" fill="#E02020" x="19.15" y="17.15"></rect><rect width="0.7" height="0.7" fill="#E02020" x="19.15" y="19.15"></rect><rect width="0.7" height="3.7" fill="#E02020" x="27.15" y="17.15"></rect><rect width="0.7" height="0.7" fill="#E02020" x="27.15" y="21.15"></rect><rect width="0.7" height="1.7" fill="#E02020" x="29.15" y="17.15"></rect><rect width="0.7" height="0.7" fill="#E02020" x="29.15" y="19.15"></rect><rect width="1.7" height="0.7" fill="#F6B506" x="8.15" y="19.15"></rect><rect width="0.7" height="1.7" fill="#E02020" x="11.15" y="19.15"></rect><rect width="0.7" height="0.7" fill="#E02020" x="11.15" y="21.15"></rect><rect width="0.7" height="1.7" fill="#E02020" x="31.15" y="19.15"></rect><rect width="0.7" height="0.7" fill="#E02020" x="31.15" y="21.15"></rect><rect width="0.7" height="1.7" fill="#E02020" x="16.15" y="20.15"></rect><rect width="0.7" height="0.7" fill="#E02020" x="16.15" y="22.15"></rect><rect width="1.7" height="0.7" fill="#F6B506" x="0.15000000000000002" y="21.15"></rect><rect width="1.7" height="0.7" fill="#F6B506" x="9.15" y="21.15"></rect><rect width="1.7" height="0.7" fill="#F6B506" x="14.15" y="21.15"></rect><rect width="1.7" height="0.7" fill="#F6B506" x="23.15" y="21.15"></rect><rect width="2.7" height="0.7" fill="#F6B506" x="28.15" y="21.15"></rect><rect width="1.7" height="0.7" fill="#F6B506" x="12.15" y="22.15"></rect><rect width="2.7" height="0.7" fill="#F6B506" x="22.15" y="23.15"></rect><rect width="0.7" height="2.7" fill="#E02020" x="32.15" y="23.15"></rect><rect width="0.7" height="0.7" fill="#E02020" x="32.15" y="26.15"></rect><rect width="0.7" height="3.7" fill="#E02020" x="24.15" y="24.15"></rect><rect width="0.7" height="0.7" fill="#E02020" x="24.15" y="28.15"></rect><rect width="3.7" height="0.7" fill="#F6B506" x="25.15" y="24.15"></rect><rect width="0.7" height="1.7" fill="#E02020" x="17.15" y="25.15"></rect><rect width="0.7" height="0.7" fill="#E02020" x="17.15" y="27.15"></rect><rect width="0.7" height="3.7" fill="#E02020" x="28.15" y="25.15"></rect><rect width="0.7" height="0.7" fill="#E02020" x="28.15" y="29.15"></rect><rect width="0.7" height="1.7" fill="#E02020" x="12.15" y="26.15"></rect><rect width="0.7" height="0.7" fill="#E02020" x="12.15" y="28.15"></rect><rect width="2.7" height="0.7" fill="#F6B506" x="14.15" y="26.15"></rect><rect width="2.7" height="0.7" fill="#F6B506" x="19.15" y="26.15"></rect><rect width="2.7" height="0.7" fill="#F6B506" x="29.15" y="26.15"></rect><rect width="1.7" height="0.7" fill="#F6B506" x="8.15" y="27.15"></rect><rect width="0.7" height="1.7" fill="#E02020" x="20.15" y="27.15"></rect><rect width="0.7" height="0.7" fill="#E02020" x="20.15" y="29.15"></rect><rect width="1.7" height="0.7" fill="#F6B506" x="10.15" y="28.15"></rect><rect width="0.7" height="2.7" fill="#E02020" x="22.15" y="28.15"></rect><rect width="0.7" height="0.7" fill="#E02020" x="22.15" y="31.15"></rect><rect width="0.7" height="2.7" fill="#E02020" x="8.15" y="29.15"></rect><rect width="0.7" height="0.7" fill="#E02020" x="8.15" y="32.15"></rect><rect width="1.7" height="0.7" fill="#F6B506" x="17.15" y="30.15"></rect><rect width="1.7" height="0.7" fill="#F6B506" x="25.15" y="30.15"></rect><rect width="0.7" height="1.7" fill="#E02020" x="29.15" y="30.15"></rect><rect width="0.7" height="0.7" fill="#E02020" x="29.15" y="32.15"></rect><rect width="1.7" height="0.7" fill="#F6B506" x="23.15" y="32.15"></rect></svg>